<svg width="300" height="300" xmlns="http://www.w3.org/2000/svg" preserveAspectRatio="xMidYMid meet" version="1.0">

 <g>
  <title>Layer 1</title>
  <g id="svg_1" fill="#000000" transform="translate(0 300) scale(0.1 -0.1)">
   <path fill="#ffffff" id="svg_2" d="m1560,2975c0,-8 5,-15 10,-15c6,0 10,7 10,15c0,8 -4,15 -10,15c-5,0 -10,-7 -10,-15z"/>
   <path fill="#ffffff" id="svg_3" d="m1460,2950c0,-12 -7,-20 -17,-20c-16,0 -16,-1 0,-12c11,-9 17,-31 19,-73c3,-57 4,-60 31,-63c15,-2 27,1 27,7c0,6 -9,11 -20,11c-18,0 -20,7 -20,55c0,48 3,57 22,64l23,8l-23,7c-12,4 -22,14 -22,22c0,8 -4,14 -10,14c-5,0 -10,-9 -10,-20z"/>
   <path fill="#ffffff" id="svg_4" d="m1072,2929c2,-7 10,-15 17,-17c8,-3 12,1 9,9c-2,7 -10,15 -17,17c-8,3 -12,-1 -9,-9z"/>
   <path fill="#ffffff" id="svg_5" d="m1313,2923c-25,-10 -12,-20 24,-19c28,1 38,-3 41,-16c2,-12 -5,-19 -25,-24c-39,-9 -53,-23 -53,-50c0,-31 28,-45 75,-37l38,6l-6,59c-3,32 -11,65 -17,73c-12,15 -52,19 -77,8zm73,-88c8,-20 -13,-45 -38,-45c-21,0 -33,22 -24,45c7,20 55,19 62,0z"/>
   <path fill="#ffffff" id="svg_6" d="m1557,2923c-11,-10 -8,-143 3,-143c6,0 10,20 10,44c0,24 3,58 6,75c6,29 -3,40 -19,24z"/>
   <path fill="#ffffff" id="svg_7" d="m1626,2898c-22,-31 -20,-91 2,-111c25,-22 65,-21 86,2c25,27 26,99 1,117c-29,21 -71,17 -89,-8zm82,-32c6,-52 -5,-76 -37,-76c-40,0 -51,32 -31,85c8,21 16,26 38,23c21,-2 28,-9 30,-32z"/>
   <path fill="#ffffff" id="svg_8" d="m1178,2903c-34,-9 -18,-24 17,-17c19,3 35,3 35,0c0,-3 -14,-31 -31,-61c-17,-30 -27,-59 -24,-65c8,-13 85,-4 100,12c7,7 -4,9 -32,4c-24,-3 -43,-4 -43,-1c0,3 13,32 30,64c16,32 26,61 23,65c-7,7 -48,6 -75,-1z"/>
   <path fill="#ffffff" id="svg_9" d="m1785,2887c-17,-50 -32,-128 -25,-132c11,-7 15,1 30,63c11,48 14,52 40,52c16,0 31,-4 34,-9c4,-5 0,-37 -8,-70c-11,-46 -11,-61 -2,-61c11,0 36,85 36,122c0,29 -96,61 -105,35z"/>
   <path fill="#ffffff" id="svg_10" d="m1090,2874c0,-3 7,-34 16,-68c19,-73 40,-102 30,-41c-9,63 -26,115 -36,115c-6,0 -10,-3 -10,-6z"/>
   <path fill="#ffffff" id="svg_11" d="m2040,2849c-7,-12 -18,-18 -26,-15c-16,6 -19,-5 -4,-20c7,-7 4,-25 -10,-58c-11,-26 -20,-54 -20,-62c0,-31 16,-11 39,46c19,51 26,60 42,55c22,-7 26,10 4,19c-20,7 -8,36 16,36c10,0 19,5 19,10c0,19 -49,10 -60,-11z"/>
   <path fill="#ffffff" id="svg_12" d="m975,2842c-22,-8 -41,-16 -43,-17c-4,-4 39,-119 49,-129c19,-21 19,4 -1,54c-23,57 -15,84 23,78c22,-3 29,-13 52,-71c23,-60 35,-34 12,28c-25,69 -40,78 -92,57z"/>
   <path fill="#ffffff" id="svg_13" d="m817,2774c-37,-20 -27,-31 13,-14c27,11 34,11 47,-3c14,-14 13,-17 -16,-31c-24,-13 -31,-23 -31,-46c0,-45 30,-56 79,-28l39,22l-29,58c-32,64 -49,71 -102,42zm93,-74c8,-16 6,-22 -14,-36c-28,-18 -46,-12 -46,15c0,39 42,54 60,21z"/>
   <path fill="#ffffff" id="svg_14" d="m2095,2757c-22,-19 -28,-33 -29,-67c-1,-39 2,-46 27,-58c24,-12 31,-11 53,3c14,9 32,32 40,52c13,31 13,38 -1,59c-8,13 -19,24 -24,24c-5,0 -16,3 -24,6c-8,3 -27,-6 -42,-19zm63,-9c19,-19 14,-55 -12,-85c-20,-23 -28,-26 -43,-17c-26,16 -27,56 -3,87c23,29 39,34 58,15z"/>
   <path fill="#ffffff" id="svg_15" d="m702,2708c-42,-30 -49,-54 -23,-82c12,-12 21,-27 21,-33c0,-6 7,-14 16,-17c8,-3 13,-10 9,-16c-3,-5 3,-18 14,-29c17,-17 25,-19 51,-9c37,12 63,48 54,73c-6,14 -15,16 -48,12c-23,-3 -49,-8 -58,-12c-31,-12 -20,14 12,30c33,17 40,56 16,88c-17,22 -25,22 -64,-5zm53,-28c13,-41 -43,-70 -64,-33c-7,13 -5,23 6,35c22,24 50,23 58,-2zm64,-94c9,-11 6,-18 -15,-35c-33,-26 -40,-26 -54,0c-13,24 -13,25 20,38c34,13 36,13 49,-3z"/>
   <path fill="#ffffff" id="svg_16" d="m2210,2653c-43,-72 -44,-73 -31,-73c6,0 26,22 43,50c29,44 36,49 61,44c15,-3 27,-3 27,-1c0,4 -58,37 -64,37c-1,0 -17,-26 -36,-57z"/>
   <path fill="#ffffff" id="svg_17" d="m595,2630c-17,-19 -16,-21 24,-75c23,-30 46,-55 51,-55c16,0 12,8 -25,57c-37,49 -41,58 -25,68c12,8 13,25 2,25c-5,0 -17,-9 -27,-20z"/>
   <path fill="#ffffff" id="svg_18" d="m2402,2628c-15,-15 -16,-57 -2,-94c23,-59 -20,-86 -67,-42c-13,12 -26,19 -29,15c-10,-9 15,-36 49,-53c26,-14 31,-14 54,1c23,15 25,21 18,59c-18,106 -8,124 44,80c43,-36 55,-20 13,17c-34,31 -61,36 -80,17z"/>
   <path fill="#ffffff" id="svg_19" d="m446,2579c-49,-39 -20,-126 56,-165c49,-25 108,9 108,62c0,27 -50,93 -81,110c-37,19 -52,18 -83,-7zm94,-35c45,-41 56,-65 41,-92c-20,-38 -51,-34 -98,12c-48,48 -54,77 -21,100c30,22 32,21 78,-20z"/>
   <path fill="#ffffff" id="svg_20" d="m2495,2499c4,-12 -5,-28 -25,-46c-43,-38 -54,-61 -39,-79c16,-20 28,-18 22,5c-3,11 8,32 30,56c31,33 38,37 52,25c19,-16 32,-6 16,14c-8,10 -9,16 -1,21c21,13 9,23 -25,22c-29,-1 -34,-4 -30,-18z"/>
   <path fill="#ffffff" id="svg_21" d="m1318,2426c-249,-44 -457,-168 -621,-368c-43,-52 -44,-58 -17,-58c11,0 20,4 20,8c0,12 127,149 160,172l29,21l51,-26c27,-14 50,-28 50,-31c0,-3 -15,-24 -34,-47c-18,-23 -41,-54 -51,-69c-17,-27 -17,-28 1,-28c11,0 35,23 59,56c21,30 44,59 50,64c6,5 42,-3 90,-20c82,-29 90,-37 70,-82c-13,-32 23,-20 41,13c14,28 19,30 47,25c18,-4 61,-9 97,-12c91,-7 110,-12 110,-29c0,-8 7,-15 15,-15c8,0 15,7 15,15c0,8 13,16 33,19c121,17 199,27 201,24c1,-2 8,-15 16,-30c7,-16 22,-28 32,-28c18,0 18,2 2,31c-8,17 -12,35 -7,39c4,4 43,19 86,34l77,28l20,-23c11,-13 35,-43 52,-66c18,-24 40,-43 50,-43c22,0 21,4 -39,82c-24,31 -43,60 -43,65c0,10 74,53 92,53c20,0 118,-90 164,-150c21,-28 46,-50 57,-50c16,0 14,6 -14,45c-81,112 -237,238 -377,302c-167,77 -408,110 -584,79zm272,-27c47,-5 89,-14 93,-18c4,-4 -20,-21 -55,-36c-53,-25 -76,-29 -148,-29c-72,0 -95,4 -148,29c-36,16 -59,32 -54,37c8,8 122,23 197,27c17,0 69,-4 115,-10zm-355,-46c0,-7 -27,-32 -61,-55c-33,-24 -81,-60 -107,-82c-51,-42 -74,-43 -118,-7c-24,20 -24,20 -4,35c33,25 152,86 208,106c57,20 82,21 82,3zm629,-25c39,-17 96,-46 126,-66l55,-35l-53,-25l-52,-26l-37,36c-40,38 -155,124 -175,130c-6,2 -8,10 -4,17c10,16 49,7 140,-31zm-37,-95c54,-43 73,-62 73,-72c0,-10 -111,-51 -136,-50c-13,0 -40,32 -81,95l-62,94l27,14c25,14 31,12 82,-16c30,-17 74,-46 97,-65zm-507,77c18,-10 15,-16 -35,-93c-85,-130 -69,-120 -147,-94c-37,13 -71,26 -74,30c-15,15 184,166 219,167c10,0 27,-5 37,-10zm138,-35c2,-2 4,-48 5,-102l2,-98l-89,3c-48,1 -96,7 -107,12c-18,10 -17,14 17,68c20,31 50,74 67,95c28,36 33,38 66,32c20,-4 38,-8 39,-10zm155,-27c40,-50 101,-147 95,-153c-6,-7 -131,-25 -170,-25l-38,0l0,104l0,105l28,4c15,2 32,5 39,6c6,0 27,-18 46,-41z"/>
   <path fill="#ffffff" id="svg_22" d="m295,2420c-3,-5 32,-38 77,-74c46,-36 85,-61 86,-55c2,5 -8,19 -22,30c-14,11 -32,26 -39,32c-43,40 -97,76 -102,67z"/>
   <path fill="#ffffff" id="svg_23" d="m2580,2421c0,-7 7,-19 15,-27c17,-18 20,-54 5,-54c-6,0 -24,9 -39,21c-35,26 -68,18 -77,-17c-5,-20 0,-32 24,-56l31,-30l45,37c50,40 60,59 47,83c-14,26 -51,57 -51,43zm-16,-83c8,-14 7,-22 -7,-35c-16,-16 -18,-16 -39,4c-18,19 -19,24 -8,38c16,19 39,16 54,-7z"/>
   <path fill="#ffffff" id="svg_24" d="m271,2291c-23,-32 -26,-41 -13,-41c5,0 15,11 22,25c12,23 39,33 53,19c3,-3 -2,-22 -11,-41c-20,-42 -8,-68 33,-68c21,0 33,8 46,30c10,17 18,33 18,36c1,11 -94,69 -112,69c-8,0 -25,-13 -36,-29zm108,-30c9,-6 11,-18 7,-36c-5,-20 -12,-26 -29,-23c-25,3 -34,32 -17,53c14,17 20,18 39,6z"/>
   <path fill="#ffffff" id="svg_25" d="m2620,2273c-67,-43 -63,-39 -59,-52c3,-7 27,4 57,24c52,34 53,34 72,15c11,-11 20,-24 20,-30c0,-5 -22,-24 -50,-42c-47,-31 -62,-48 -41,-48c5,0 31,15 57,33c55,36 65,64 34,92c-11,10 -20,24 -20,32c0,19 -9,16 -70,-24z"/>
   <path fill="#ffffff" id="svg_26" d="m187,2148c-9,-23 -16,-42 -14,-44c9,-7 115,-64 120,-64c21,0 0,23 -43,47c-50,28 -56,37 -44,67c8,22 27,20 84,-9c27,-14 51,-21 55,-16c8,13 -82,61 -115,61c-22,0 -30,-7 -43,-42z"/>
   <path fill="#ffffff" id="svg_27" d="m2709,2147c-62,-28 -76,-69 -40,-116l18,-24l87,42c87,42 111,66 56,55c-19,-4 -30,-2 -30,5c0,15 -37,51 -52,50c-7,0 -25,-6 -39,-12zm72,-39c13,-24 8,-28 -49,-53c-37,-16 -45,-17 -53,-4c-16,25 -5,54 30,71c37,19 57,15 72,-14z"/>
   <path fill="#ffffff" id="svg_28" d="m135,2030c-19,-21 -23,-66 -8,-81c20,-20 87,-37 106,-27c23,12 41,52 34,72c-8,21 -67,56 -93,56c-11,0 -29,-9 -39,-20zm83,-20c33,-20 36,-27 26,-54c-11,-29 -95,-14 -108,20c-7,18 19,54 38,54c6,0 26,-9 44,-20z"/>
   <path fill="#ffffff" id="svg_29" d="m2827,2014c-4,-4 -2,-13 4,-20c13,-16 8,-56 -7,-61c-6,-2 -21,12 -32,32c-24,40 -40,43 -73,16l-23,-19l19,-41c22,-46 32,-47 104,-13c32,16 36,21 35,56c-1,38 -15,62 -27,50zm-41,-66c12,-38 -38,-52 -57,-16c-9,18 -8,24 6,34c21,16 42,8 51,-18z"/>
   <path fill="#ffffff" id="svg_30" d="m30,1910c0,-5 7,-10 15,-10c8,0 15,5 15,10c0,6 -7,10 -15,10c-8,0 -15,-4 -15,-10z"/>
   <path fill="#ffffff" id="svg_31" d="m85,1899c-4,-5 0,-11 7,-14c33,-12 114,-35 126,-35c21,0 13,17 -10,24c-13,3 -44,12 -70,20c-29,9 -50,11 -53,5z"/>
   <path fill="#ffffff" id="svg_32" d="m1180,1903c-54,-9 -121,-36 -160,-64c-107,-77 -120,-260 -27,-357c52,-54 101,-77 291,-135c98,-30 184,-61 192,-69c21,-21 2,-38 -57,-47c-110,-18 -221,18 -287,94c-31,35 -32,35 -112,35l-80,0l0,-155l0,-155l90,0c89,0 90,0 90,25c0,31 4,31 72,1c79,-35 166,-50 262,-44c183,12 296,112 296,263c0,70 -23,125 -71,173c-53,54 -105,78 -279,127c-207,59 -231,73 -194,109c30,30 170,15 252,-28c18,-9 44,-30 59,-46c25,-29 29,-30 115,-30l88,0l0,145l0,146l-87,-3c-83,-3 -88,-4 -91,-25c-4,-28 -3,-28 -53,-2c-75,38 -217,57 -309,42z"/>
   <path fill="#ffffff" id="svg_33" d="m2101,1894c-216,-46 -321,-189 -321,-434c0,-139 34,-232 112,-306c82,-79 208,-124 349,-124c234,0 388,94 438,269c38,132 35,256 -9,375c-66,175 -322,274 -569,220zm219,-212c53,-26 60,-49 60,-210c0,-160 -8,-190 -62,-218c-41,-21 -129,-15 -166,13c-43,32 -54,81 -50,223c2,101 7,131 21,154c36,54 130,72 197,38z"/>
   <path fill="#ffffff" id="svg_34" d="m332,1798l3,-103l63,-3l62,-3l-2,-217l-3,-217l-62,-3l-63,-3l0,-99l0,-100l275,0l275,0l0,100l0,100l-66,0l-67,0l6,68c4,37 7,136 7,220l0,152l60,0l60,0l0,105l0,105l-275,0l-276,0l3,-102z"/>
   <path fill="#ffffff" id="svg_35" d="m2817,1865c-69,-19 -79,-24 -73,-34c4,-6 29,-3 61,6c51,15 57,15 73,-1c21,-18 42,-22 24,-4c-7,7 -12,20 -12,30c0,21 -7,21 -73,3z"/>
   <path fill="#ffffff" id="svg_36" d="m65,1837c-4,-10 -14,-16 -21,-13c-7,3 -16,1 -19,-5c-4,-5 1,-12 9,-15c9,-3 16,-12 16,-20c0,-17 17,-19 22,-2c3,9 15,9 50,0c65,-17 77,-15 87,11c11,28 5,36 -12,13c-11,-15 -18,-15 -64,-5c-40,9 -53,17 -56,33c-3,19 -4,20 -12,3z"/>
   <path fill="#ffffff" id="svg_37" d="m2833,1780c-52,-12 -66,-29 -60,-73c3,-21 8,-41 11,-44c8,-9 188,25 200,37c7,7 0,10 -22,10c-25,0 -33,5 -38,25c-6,23 -40,57 -54,54c-3,-1 -20,-5 -37,-9zm71,-36c13,-33 5,-42 -45,-53c-28,-6 -55,-9 -60,-5c-16,9 -10,52 9,63c28,17 89,13 96,-5z"/>
   <path fill="#ffffff" id="svg_38" d="m41,1712c-13,-25 -15,-72 -2,-72c6,0 11,15 13,33c2,25 8,33 27,35c22,3 23,1 18,-26c-9,-43 20,-77 55,-69c23,6 27,13 30,54c3,27 4,49 3,50c0,1 -30,5 -67,9c-60,6 -67,5 -77,-14zm127,-39c4,-28 -23,-49 -43,-33c-15,12 -20,51 -9,63c11,11 49,-10 52,-30z"/>
   <path fill="#ffffff" id="svg_39" d="m2970,1625c0,-9 6,-12 15,-9c8,4 15,10 15,15c0,5 -7,9 -15,9c-8,0 -15,-7 -15,-15z"/>
   <path fill="#ffffff" id="svg_40" d="m2823,1623c-37,-5 -45,-23 -10,-23c49,0 127,13 127,21c0,9 -55,10 -117,2z"/>
   <path fill="#ffffff" id="svg_41" d="m32,1568c-7,-7 -12,-31 -12,-55l0,-43l55,-2c30,-1 62,-2 70,-2c8,-1 15,4 15,9c0,6 -26,12 -57,15c-57,5 -58,6 -58,35c0,30 0,30 63,33c34,2 62,7 62,12c0,14 -124,12 -138,-2z"/>
   <path fill="#ffffff" id="svg_42" d="m2791,1528c0,-18 4,-42 9,-53c7,-15 9,-10 9,23c1,23 3,42 6,42c3,0 29,-18 57,-40c28,-23 56,-39 62,-37c13,4 18,97 5,97c-5,0 -9,-16 -9,-35c0,-19 -3,-35 -6,-35c-4,0 -26,16 -50,35c-56,46 -84,47 -83,3z"/>
   <path fill="#ffffff" id="svg_43" d="m22,1403l1,-33l74,0c42,0 73,4 73,10c0,6 -26,10 -59,10c-50,0 -61,3 -74,23c-15,22 -15,22 -15,-10z"/>
   <path fill="#ffffff" id="svg_44" d="m2802,1417c-6,-7 -11,-32 -10,-55l0,-43l72,3l71,3l9,38c7,26 6,41 -2,49c-9,9 -12,6 -12,-14c0,-39 -10,-58 -31,-58c-15,0 -19,7 -19,33c0,18 -5,38 -12,45c-16,16 -53,15 -66,-1zm64,-33c8,-30 -6,-47 -32,-42c-35,6 -30,68 5,68c14,0 23,-9 27,-26z"/>
   <path fill="#ffffff" id="svg_45" d="m163,1310c5,-39 -7,-70 -27,-70c-14,0 -26,30 -26,68c0,17 -6,22 -24,22c-53,0 -74,-62 -35,-101c18,-18 28,-20 63,-15c22,4 48,13 55,21c18,17 18,82 1,99c-10,8 -11,3 -7,-24zm-67,-25c10,-39 -1,-58 -26,-45c-22,12 -26,40 -8,58c18,18 27,15 34,-13z"/>
   <path fill="#ffffff" id="svg_46" d="m2921,1277c-1,-17 -7,-18 -67,-12c-51,6 -68,4 -75,-6c-12,-19 -11,-39 1,-39c6,0 10,7 10,16c0,14 8,16 52,10c61,-8 68,-12 68,-34c1,-16 1,-16 11,1c5,9 17,17 24,17c8,0 15,5 15,10c0,6 -6,10 -14,10c-8,0 -17,10 -19,23c-3,16 -5,17 -6,4z"/>
   <path fill="#ffffff" id="svg_47" d="m178,1188c-2,-17 -14,-25 -50,-34c-44,-11 -48,-10 -62,10l-15,21l0,-22c-1,-12 -8,-26 -17,-31c-14,-8 -12,-12 14,-24c28,-15 31,-14 35,3c3,11 13,19 24,19c10,0 35,5 56,11c29,8 37,15 37,34c0,31 -18,42 -22,13z"/>
   <path fill="#ffffff" id="svg_48" d="m2760,1181c0,-5 24,-14 52,-21c29,-6 63,-13 77,-17c17,-4 22,-2 19,7c-2,8 -31,19 -64,26c-73,16 -84,16 -84,5z"/>
   <path fill="#ffffff" id="svg_49" d="m2940,1140c0,-5 7,-10 15,-10c8,0 15,5 15,10c0,6 -7,10 -15,10c-8,0 -15,-4 -15,-10z"/>
   <path fill="#ffffff" id="svg_50" d="m2772,1119c-25,-10 -47,-50 -39,-73c7,-19 44,-42 80,-50c21,-5 33,-1 52,18c14,14 25,32 25,39c0,42 -73,82 -118,66zm78,-37c34,-27 20,-62 -25,-62c-44,0 -80,29 -71,58c9,28 64,30 96,4z"/>
   <path fill="#ffffff" id="svg_51" d="m151,1082c-59,-23 -68,-40 -51,-91c7,-23 16,-41 20,-41c19,0 130,43 130,51c0,12 -5,12 -67,-8c-47,-15 -56,-15 -64,-3c-20,32 -5,54 49,74c28,10 52,22 52,27c0,13 -19,10 -69,-9z"/>
   <path fill="#ffffff" id="svg_52" d="m2700,984c0,-3 25,-16 56,-30c50,-22 55,-27 52,-52c-4,-35 -25,-38 -82,-13c-51,24 -56,25 -56,11c0,-14 85,-50 116,-50c17,0 28,8 35,28c6,15 15,34 20,43c6,14 -3,22 -52,43c-58,25 -89,32 -89,20z"/>
   <path fill="#ffffff" id="svg_53" d="m170,913c-83,-38 -86,-40 -77,-49c8,-8 187,67 187,78c0,15 -36,6 -110,-29z"/>
   <path fill="#ffffff" id="svg_54" d="m677,919c30,-51 155,-173 234,-228c127,-90 266,-146 421,-171c108,-18 310,-8 413,19c149,39 308,127 421,234c58,54 144,156 144,170c0,21 -33,1 -66,-40c-55,-67 -144,-153 -159,-153c-7,0 -34,12 -59,26c-42,23 -45,28 -34,44c7,9 30,39 50,66c41,54 45,64 23,64c-8,0 -32,-24 -53,-53c-62,-83 -61,-83 -139,-53c-38,14 -74,26 -82,26c-13,0 -12,25 4,63c13,30 -19,19 -39,-14c-17,-28 -22,-31 -55,-25c-20,3 -71,9 -115,13c-65,5 -80,9 -84,25c-6,23 -28,23 -34,0c-4,-16 -19,-20 -82,-25c-41,-4 -93,-9 -113,-13c-35,-5 -39,-3 -51,25c-9,19 -21,31 -33,31c-18,0 -19,-2 -4,-30c8,-16 15,-33 15,-37c0,-16 -170,-66 -183,-54c-7,5 -31,35 -52,65c-24,33 -48,56 -59,56c-18,0 -18,-1 -1,-27c10,-16 33,-47 51,-70c19,-23 34,-45 34,-50c0,-4 -22,-21 -50,-36l-49,-28l-68,65c-37,35 -81,82 -98,105c-16,22 -38,41 -48,41c-17,0 -17,-1 0,-31zm791,-146l-3,-108l-40,-3c-39,-3 -43,-1 -84,55c-44,59 -85,132 -79,139c5,5 127,21 171,23l38,1l-3,-107zm167,97c38,-6 73,-14 78,-19c4,-4 -20,-49 -53,-100l-62,-92l-41,3l-42,3l-8,54c-5,29 -6,78 -2,107c7,62 6,61 130,44zm-405,-38c0,-5 25,-46 55,-91c30,-45 55,-87 55,-92c0,-5 -12,-14 -26,-19c-22,-9 -35,-5 -78,19c-63,37 -170,123 -169,136c2,12 110,54 141,54c12,1 22,-3 22,-7zm618,-14c34,-12 62,-25 62,-29c0,-13 -97,-92 -161,-131c-53,-32 -64,-35 -90,-26c-16,6 -29,13 -27,17c23,47 127,191 138,191c8,0 43,-10 78,-22zm-736,-120c52,-40 105,-80 118,-90c24,-15 24,-17 6,-24c-32,-12 -182,49 -273,111l-35,23l38,26c22,13 42,25 46,25c4,1 49,-32 100,-71zm889,51c22,-11 39,-25 36,-32c-10,-33 -258,-146 -292,-134c-25,10 -18,20 43,59c31,21 80,57 107,82c28,25 54,45 58,46c4,0 26,-9 48,-21zm-394,-134c28,-8 61,-24 74,-34l23,-19l-74,-12c-110,-19 -350,-5 -350,20c0,8 79,44 115,53c44,11 164,6 212,-8z"/>
   <path fill="#ffffff" id="svg_55" d="m1102,247c-15,-16 -22,-36 -22,-64c0,-51 26,-77 80,-78c48,-1 55,-7 40,-34c-9,-17 -20,-21 -60,-21c-43,0 -50,-3 -50,-19c0,-15 10,-21 40,-26c44,-7 76,0 103,23c44,39 45,175 1,219c-32,32 -102,32 -132,0zm98,-36c23,-45 2,-79 -40,-66c-24,8 -31,30 -20,60c11,30 45,33 60,6z"/>
   <path fill="#ffffff" id="svg_56" d="m1331,244c-27,-35 -36,-102 -21,-165c11,-44 17,-53 47,-66c45,-18 87,-9 114,25c18,24 20,38 17,110c-3,74 -6,86 -27,103c-36,29 -104,26 -130,-7zm101,-57c2,-12 2,-45 -1,-71c-12,-98 -71,-82 -71,19c0,62 22,100 49,85c10,-5 21,-20 23,-33z"/>
   <path fill="#ffffff" id="svg_57" d="m1574,262c-47,-33 -62,-158 -24,-219c34,-57 127,-53 157,7c7,14 13,55 13,92c0,57 -4,71 -26,97c-21,26 -33,31 -67,31c-23,0 -47,-4 -53,-8zm80,-58c3,-9 6,-39 6,-68c0,-105 -62,-120 -68,-16c-4,76 3,100 32,100c13,0 27,-7 30,-16z"/>
   <path fill="#ffffff" id="svg_58" d="m1803,250c-21,-12 -33,-28 -33,-41c0,-13 5,-19 13,-16c51,21 48,25 45,-59c-3,-78 -3,-79 -30,-82c-20,-2 -28,-9 -28,-23c0,-17 8,-19 85,-19c78,0 85,2 85,20c0,15 -7,20 -25,20l-25,0l0,110l0,110l-27,0c-16,0 -43,-9 -60,-20z"/>
  </g>
 </g>
</svg>